<svg version="1.1" id="Layer_1" xmlns="http://www.w3.org/2000/svg" xmlns:xlink="http://www.w3.org/1999/xlink" x="0px" y="0px"
	 width="100%" viewBox="0 0 494 141" enable-background="new 0 0 494 141" xml:space="preserve">
<path fill="#FEFEFE" opacity="1.000000" stroke="none" 
	d="
M360.000000,142.000000 
	C240.000015,142.000000 120.500046,142.000000 1.000048,142.000000 
	C1.000032,95.000031 1.000032,48.000061 1.000016,1.000067 
	C165.666611,1.000045 330.333221,1.000045 494.999878,1.000022 
	C494.999908,47.999935 494.999908,94.999870 494.999939,141.999908 
	C450.166656,142.000000 405.333344,142.000000 360.000000,142.000000 
M480.818573,106.312531 
	C480.895081,107.910576 480.971588,109.508629 481.045380,111.050323 
	C484.525085,111.050323 487.572174,111.050323 490.642883,111.050323 
	C490.642883,82.573540 490.642883,54.505711 490.642883,26.415359 
	C462.325165,26.415359 434.335419,26.415359 406.490112,26.415359 
	C406.490112,29.773666 406.490112,32.708340 406.490112,36.094490 
	C431.321075,36.094490 455.868988,36.094490 480.818573,36.094490 
	C480.818573,59.491791 480.818573,82.424370 480.818573,106.312531 
M19.171844,97.493607 
	C19.171844,77.279648 19.171844,57.065697 19.171844,36.816071 
	C15.497136,36.816071 12.562246,36.816071 9.378923,36.816071 
	C9.378923,65.272118 9.378923,93.453438 9.378923,121.735046 
	C37.606518,121.735046 65.480049,121.735046 93.463234,121.735046 
	C93.463234,118.405174 93.463234,115.352638 93.463234,111.841080 
	C68.603691,111.841080 44.058861,111.841080 19.171873,111.841080 
	C19.171873,107.085426 19.171873,102.787415 19.171844,97.493607 
M363.044098,55.994625 
	C363.044098,65.875587 363.044098,75.756554 363.044098,85.637520 
	C356.025177,77.201851 349.606873,68.755241 344.022064,59.789471 
	C340.697937,54.452991 336.721802,53.342606 331.087708,54.870430 
	C331.087708,67.185020 331.087708,79.419479 331.087708,91.699707 
	C334.228790,91.699707 337.101776,91.699707 340.349274,91.699707 
	C340.349274,85.139824 340.349274,78.928421 340.349274,71.356750 
	C347.086731,80.997742 353.419739,89.309715 358.884674,98.157814 
	C362.230194,103.574379 366.215698,105.165474 372.180115,103.524834 
	C372.180115,87.336365 372.180115,71.096718 372.180115,54.081074 
	C368.964539,54.456348 366.110077,54.789482 363.044098,55.994625 
M86.638077,92.053528 
	C88.265556,92.053528 89.893036,92.053528 92.033287,92.053528 
	C92.033287,85.348167 92.033287,78.987526 92.033287,71.246414 
	C98.915680,81.104858 105.344025,89.546684 110.883736,98.536140 
	C114.194267,103.908211 118.216576,104.922577 123.885788,103.581345 
	C123.885788,87.322334 123.885788,71.093452 123.885788,54.595852 
	C120.891525,54.595852 118.152130,54.595852 114.708984,54.595852 
	C114.708984,65.092537 114.708984,75.350960 114.708984,87.092979 
	C107.660370,77.043518 101.187141,68.569038 95.592293,59.549686 
	C92.327553,54.286648 88.400749,53.438824 82.490181,54.906334 
	C82.490181,66.576653 82.437889,78.348221 82.628189,90.115860 
	C82.638901,90.778160 84.645836,91.408173 86.638077,92.053528 
M318.399017,91.763138 
	C324.167206,78.811684 321.068146,64.796127 310.987061,58.242516 
	C300.014587,51.109436 284.704224,54.132442 277.838837,64.787628 
	C270.493103,76.188286 273.518860,93.116997 284.142151,100.053673 
	C295.751709,107.634354 310.076202,104.416077 318.399017,91.763138 
M50.732483,54.321693 
	C48.806107,54.321693 46.879730,54.321693 44.765160,54.321693 
	C44.765160,71.243317 44.765160,87.465401 44.765160,103.711899 
	C52.642883,103.711899 60.213619,103.711899 67.761902,103.711899 
	C67.761902,100.664757 67.761902,97.919159 67.761902,94.702759 
	C63.092964,94.702759 58.689758,94.702759 54.300743,94.702759 
	C54.300743,90.801430 54.300743,87.386703 54.300743,83.698235 
	C57.734943,83.698235 60.875500,83.698235 64.016052,83.698235 
	C67.273727,83.698235 70.531403,83.698235 73.895325,83.698235 
	C73.895325,80.348213 73.895325,77.724747 73.895325,74.666656 
	C67.287315,74.666656 60.859131,74.666656 54.347107,74.666656 
	C54.347107,70.674774 54.347107,67.128227 54.347107,63.287094 
	C58.986786,63.287094 63.286049,63.287094 67.787682,63.287094 
	C67.787682,60.249928 67.787682,57.514332 67.787682,54.321804 
	C62.255901,54.321804 56.966751,54.321804 50.732483,54.321693 
M451.302277,54.311481 
	C446.857483,53.563740 443.865936,55.233391 441.568512,59.208645 
	C439.265259,63.193985 436.270325,66.779579 433.555634,70.572380 
	C426.346802,63.446064 424.437988,62.770576 417.123840,64.776871 
	C419.668854,68.344994 421.991364,71.998039 424.725647,75.311264 
	C426.983978,78.047707 427.053497,80.102737 424.808563,83.014801 
	C419.789032,89.526047 415.193298,96.364037 410.189117,103.400558 
	C417.248566,104.966278 422.498535,104.488388 425.857910,97.832741 
	C427.692169,94.198784 430.576050,91.094643 433.495483,87.045776 
	C436.544128,95.335983 442.410400,95.474731 449.531097,93.993034 
	C445.853455,88.811646 442.439423,84.001602 439.028351,79.195724 
	C444.892273,70.965805 450.512054,63.078529 456.591766,54.545803 
	C454.379333,54.429607 453.256409,54.370632 451.302277,54.311481 
M230.982574,57.404602 
	C229.815628,56.773895 228.710007,55.961731 227.471375,55.543167 
	C221.351440,53.475117 215.570282,54.111282 210.699936,58.558552 
	C206.419632,62.467037 204.956558,67.533966 206.542526,73.106277 
	C208.343048,79.432495 213.142609,82.372986 219.375656,83.345268 
	C220.690231,83.550331 222.338486,83.408035 223.229477,84.150261 
	C224.895325,85.537979 226.966568,87.323540 227.260025,89.195793 
	C227.497040,90.707970 225.516998,92.714973 224.226700,94.256577 
	C223.589432,95.017937 222.288818,95.224075 221.583313,95.546593 
	C221.583313,98.533623 221.583313,101.124687 221.583313,103.713882 
	C230.556808,103.509201 236.302750,98.338516 236.833908,90.261810 
	C237.344086,82.504517 231.739624,76.097916 223.479187,74.972107 
	C222.002762,74.770889 220.127350,74.973778 219.158157,74.145378 
	C217.570236,72.788132 215.409912,70.577667 215.624481,69.021172 
	C215.890915,67.088509 217.998627,64.594452 219.895493,63.867149 
	C224.181976,62.223618 226.682892,65.005936 227.871979,68.676117 
	C230.919403,68.676117 233.662170,68.676117 238.177567,68.676117 
	C235.543655,64.382454 233.548553,61.130116 230.982574,57.404602 
M156.578079,70.014618 
	C155.270660,73.562073 153.963242,77.109528 152.331100,81.538033 
	C149.690720,74.208382 147.320160,67.675240 144.983856,61.129856 
	C142.215881,53.375027 142.205505,53.357735 132.968231,54.930618 
	C139.285156,71.352341 145.563095,87.672676 152.314896,105.224915 
	C157.945190,90.673935 163.061752,77.450691 168.235504,64.079605 
	C158.998734,63.133266 158.998734,63.133266 156.578079,70.014618 
M387.147217,65.530426 
	C387.147217,75.328476 387.147217,85.126526 387.147217,94.943535 
	C385.054535,95.341698 383.345551,95.666862 381.747498,95.970917 
	C381.747498,98.800613 381.747498,101.235611 381.747498,103.837402 
	C388.663696,103.837402 395.260345,103.837402 402.100250,103.837402 
	C402.100250,101.073669 402.100250,98.497131 402.100250,95.778183 
	C400.275391,95.510315 398.707764,95.280205 396.641296,94.976868 
	C396.641296,81.383087 396.641296,67.997841 396.641296,54.692871 
	C393.193176,54.692871 390.297485,54.692871 387.147247,54.692871 
	C387.147247,58.241375 387.147247,61.392365 387.147217,65.530426 
M182.933289,94.197105 
	C181.088028,94.903687 179.242767,95.610275 177.436523,96.301918 
	C177.436523,98.744339 177.436523,101.162979 177.436523,103.704544 
	C184.448364,103.704544 191.154617,103.704544 197.927322,103.704544 
	C197.927322,100.927322 197.927322,98.470070 197.927322,95.873055 
	C196.195053,95.569405 194.615707,95.292564 192.509766,94.923416 
	C192.509766,81.465508 192.509766,68.098549 192.509766,54.617607 
	C189.054489,54.617607 186.166672,54.617607 182.973328,54.617607 
	C182.973328,67.709236 182.973328,80.479485 182.933289,94.197105 
M258.423279,104.002434 
	C260.854645,104.002434 263.286011,104.002434 265.684814,104.002434 
	C265.684814,100.868423 265.684814,98.436836 265.684814,95.843750 
	C263.843353,95.586288 262.230225,95.360756 260.115356,95.065063 
	C260.115356,81.577812 260.115356,68.177010 260.115356,54.585617 
	C256.842194,54.585617 254.096161,54.585617 250.829269,54.585617 
	C250.829269,68.227966 250.829269,81.626060 250.829269,94.993134 
	C248.594803,95.397514 246.872192,95.709267 245.278320,95.997719 
	C245.278320,98.781319 245.278320,101.208427 245.278320,104.002434 
	C249.516312,104.002434 253.483612,104.002434 258.423279,104.002434 
z"/>
<path fill="#434343" opacity="1.000000" stroke="none" 
	d="
M480.818573,105.834740 
	C480.818573,82.424370 480.818573,59.491791 480.818573,36.094490 
	C455.868988,36.094490 431.321075,36.094490 406.490112,36.094490 
	C406.490112,32.708340 406.490112,29.773666 406.490112,26.415359 
	C434.335419,26.415359 462.325165,26.415359 490.642883,26.415359 
	C490.642883,54.505711 490.642883,82.573540 490.642883,111.050323 
	C487.572174,111.050323 484.525085,111.050323 481.045380,111.050323 
	C480.971588,109.508629 480.895081,107.910576 480.818573,105.834740 
z"/>
<path fill="#434343" opacity="1.000000" stroke="none" 
	d="
M19.171860,97.991501 
	C19.171873,102.787415 19.171873,107.085426 19.171873,111.841080 
	C44.058861,111.841080 68.603691,111.841080 93.463234,111.841080 
	C93.463234,115.352638 93.463234,118.405174 93.463234,121.735046 
	C65.480049,121.735046 37.606518,121.735046 9.378923,121.735046 
	C9.378923,93.453438 9.378923,65.272118 9.378923,36.816071 
	C12.562246,36.816071 15.497136,36.816071 19.171844,36.816071 
	C19.171844,57.065697 19.171844,77.279648 19.171860,97.991501 
z"/>
<path fill="#434343" opacity="1.000000" stroke="none" 
	d="
M363.149841,55.558620 
	C366.110077,54.789482 368.964539,54.456348 372.180115,54.081074 
	C372.180115,71.096718 372.180115,87.336365 372.180115,103.524834 
	C366.215698,105.165474 362.230194,103.574379 358.884674,98.157814 
	C353.419739,89.309715 347.086731,80.997742 340.349274,71.356750 
	C340.349274,78.928421 340.349274,85.139824 340.349274,91.699707 
	C337.101776,91.699707 334.228790,91.699707 331.087708,91.699707 
	C331.087708,79.419479 331.087708,67.185020 331.087708,54.870430 
	C336.721802,53.342606 340.697937,54.452991 344.022064,59.789471 
	C349.606873,68.755241 356.025177,77.201851 363.044098,85.637520 
	C363.044098,75.756554 363.044098,65.875587 363.149841,55.558620 
z"/>
<path fill="#434343" opacity="1.000000" stroke="none" 
	d="
M86.180870,92.053368 
	C84.645836,91.408173 82.638901,90.778160 82.628189,90.115860 
	C82.437889,78.348221 82.490181,66.576653 82.490181,54.906334 
	C88.400749,53.438824 92.327553,54.286648 95.592293,59.549686 
	C101.187141,68.569038 107.660370,77.043518 114.708984,87.092979 
	C114.708984,75.350960 114.708984,65.092537 114.708984,54.595852 
	C118.152130,54.595852 120.891525,54.595852 123.885788,54.595852 
	C123.885788,71.093452 123.885788,87.322334 123.885788,103.581345 
	C118.216576,104.922577 114.194267,103.908211 110.883736,98.536140 
	C105.344025,89.546684 98.915680,81.104858 92.033287,71.246414 
	C92.033287,78.987526 92.033287,85.348167 92.033287,92.053528 
	C89.893036,92.053528 88.265556,92.053528 86.180870,92.053368 
z"/>
<path fill="#454545" opacity="1.000000" stroke="none" 
	d="
M318.232880,92.097488 
	C310.076202,104.416077 295.751709,107.634354 284.142151,100.053673 
	C273.518860,93.116997 270.493103,76.188286 277.838837,64.787628 
	C284.704224,54.132442 300.014587,51.109436 310.987061,58.242516 
	C321.068146,64.796127 324.167206,78.811684 318.232880,92.097488 
M292.083405,64.215813 
	C290.953369,64.906593 289.726746,65.478897 288.709717,66.308258 
	C283.775513,70.332008 281.858521,78.093163 284.009766,84.996353 
	C285.801758,90.746735 290.177246,94.491852 295.706329,95.060852 
	C301.916748,95.699966 306.802216,93.597504 309.947083,88.080933 
	C313.310699,82.180710 312.771820,73.414024 308.552032,68.342140 
	C304.388763,63.338188 299.002350,62.090012 292.083405,64.215813 
z"/>
<path fill="#444444" opacity="1.000000" stroke="none" 
	d="
M51.205040,54.321747 
	C56.966751,54.321804 62.255901,54.321804 67.787682,54.321804 
	C67.787682,57.514332 67.787682,60.249928 67.787682,63.287094 
	C63.286049,63.287094 58.986786,63.287094 54.347107,63.287094 
	C54.347107,67.128227 54.347107,70.674774 54.347107,74.666656 
	C60.859131,74.666656 67.287315,74.666656 73.895325,74.666656 
	C73.895325,77.724747 73.895325,80.348213 73.895325,83.698235 
	C70.531403,83.698235 67.273727,83.698235 64.016052,83.698235 
	C60.875500,83.698235 57.734943,83.698235 54.300743,83.698235 
	C54.300743,87.386703 54.300743,90.801430 54.300743,94.702759 
	C58.689758,94.702759 63.092964,94.702759 67.761902,94.702759 
	C67.761902,97.919159 67.761902,100.664757 67.761902,103.711899 
	C60.213619,103.711899 52.642883,103.711899 44.765160,103.711899 
	C44.765160,87.465401 44.765160,71.243317 44.765160,54.321693 
	C46.879730,54.321693 48.806107,54.321693 51.205040,54.321747 
z"/>
<path fill="#464646" opacity="1.000000" stroke="none" 
	d="
M451.717896,54.311569 
	C453.256409,54.370632 454.379333,54.429607 456.591766,54.545803 
	C450.512054,63.078529 444.892273,70.965805 439.028351,79.195724 
	C442.439423,84.001602 445.853455,88.811646 449.531097,93.993034 
	C442.410400,95.474731 436.544128,95.335983 433.495483,87.045776 
	C430.576050,91.094643 427.692169,94.198784 425.857910,97.832741 
	C422.498535,104.488388 417.248566,104.966278 410.189117,103.400558 
	C415.193298,96.364037 419.789032,89.526047 424.808563,83.014801 
	C427.053497,80.102737 426.983978,78.047707 424.725647,75.311264 
	C421.991364,71.998039 419.668854,68.344994 417.123840,64.776871 
	C424.437988,62.770576 426.346802,63.446064 433.555634,70.572380 
	C436.270325,66.779579 439.265259,63.193985 441.568512,59.208645 
	C443.865936,55.233391 446.857483,53.563740 451.717896,54.311569 
z"/>
<path fill="#464646" opacity="1.000000" stroke="none" 
	d="
M231.268005,57.641190 
	C233.548553,61.130116 235.543655,64.382454 238.177567,68.676117 
	C233.662170,68.676117 230.919403,68.676117 227.871979,68.676117 
	C226.682892,65.005936 224.181976,62.223618 219.895493,63.867149 
	C217.998627,64.594452 215.890915,67.088509 215.624481,69.021172 
	C215.409912,70.577667 217.570236,72.788132 219.158157,74.145378 
	C220.127350,74.973778 222.002762,74.770889 223.479187,74.972107 
	C231.739624,76.097916 237.344086,82.504517 236.833908,90.261810 
	C236.302750,98.338516 230.556808,103.509201 221.583313,103.713882 
	C221.583313,101.124687 221.583313,98.533623 221.583313,95.546593 
	C222.288818,95.224075 223.589432,95.017937 224.226700,94.256577 
	C225.516998,92.714973 227.497040,90.707970 227.260025,89.195793 
	C226.966568,87.323540 224.895325,85.537979 223.229477,84.150261 
	C222.338486,83.408035 220.690231,83.550331 219.375656,83.345268 
	C213.142609,82.372986 208.343048,79.432495 206.542526,73.106277 
	C204.956558,67.533966 206.419632,62.467037 210.699936,58.558552 
	C215.570282,54.111282 221.351440,53.475117 227.471375,55.543167 
	C228.710007,55.961731 229.815628,56.773895 231.268005,57.641190 
z"/>
<path fill="#464646" opacity="1.000000" stroke="none" 
	d="
M156.718018,69.648743 
	C158.998734,63.133266 158.998734,63.133266 168.235504,64.079605 
	C163.061752,77.450691 157.945190,90.673935 152.314896,105.224915 
	C145.563095,87.672676 139.285156,71.352341 132.968231,54.930618 
	C142.205505,53.357735 142.215881,53.375027 144.983856,61.129856 
	C147.320160,67.675240 149.690720,74.208382 152.331100,81.538033 
	C153.963242,77.109528 155.270660,73.562073 156.718018,69.648743 
z"/>
<path fill="#4A4A4A" opacity="1.000000" stroke="none" 
	d="
M387.147217,65.036888 
	C387.147247,61.392365 387.147247,58.241375 387.147247,54.692871 
	C390.297485,54.692871 393.193176,54.692871 396.641296,54.692871 
	C396.641296,67.997841 396.641296,81.383087 396.641296,94.976868 
	C398.707764,95.280205 400.275391,95.510315 402.100250,95.778183 
	C402.100250,98.497131 402.100250,101.073669 402.100250,103.837402 
	C395.260345,103.837402 388.663696,103.837402 381.747498,103.837402 
	C381.747498,101.235611 381.747498,98.800613 381.747498,95.970917 
	C383.345551,95.666862 385.054535,95.341698 387.147217,94.943535 
	C387.147217,85.126526 387.147217,75.328476 387.147217,65.036888 
z"/>
<path fill="#4A4A4A" opacity="1.000000" stroke="none" 
	d="
M182.953308,93.723419 
	C182.973328,80.479485 182.973328,67.709236 182.973328,54.617607 
	C186.166672,54.617607 189.054489,54.617607 192.509766,54.617607 
	C192.509766,68.098549 192.509766,81.465508 192.509766,94.923416 
	C194.615707,95.292564 196.195053,95.569405 197.927322,95.873055 
	C197.927322,98.470070 197.927322,100.927322 197.927322,103.704544 
	C191.154617,103.704544 184.448364,103.704544 177.436523,103.704544 
	C177.436523,101.162979 177.436523,98.744339 177.436523,96.301918 
	C179.242767,95.610275 181.088028,94.903687 182.953308,93.723419 
z"/>
<path fill="#424242" opacity="1.000000" stroke="none" 
	d="
M257.937103,104.002434 
	C253.483612,104.002434 249.516312,104.002434 245.278320,104.002434 
	C245.278320,101.208427 245.278320,98.781319 245.278320,95.997719 
	C246.872192,95.709267 248.594803,95.397514 250.829269,94.993134 
	C250.829269,81.626060 250.829269,68.227966 250.829269,54.585617 
	C254.096161,54.585617 256.842194,54.585617 260.115356,54.585617 
	C260.115356,68.177010 260.115356,81.577812 260.115356,95.065063 
	C262.230225,95.360756 263.843353,95.586288 265.684814,95.843750 
	C265.684814,98.436836 265.684814,100.868423 265.684814,104.002434 
	C263.286011,104.002434 260.854645,104.002434 257.937103,104.002434 
z"/>
<path fill="#FBFBFB" opacity="1.000000" stroke="none" 
	d="
M292.459473,64.111557 
	C299.002350,62.090012 304.388763,63.338188 308.552032,68.342140 
	C312.771820,73.414024 313.310699,82.180710 309.947083,88.080933 
	C306.802216,93.597504 301.916748,95.699966 295.706329,95.060852 
	C290.177246,94.491852 285.801758,90.746735 284.009766,84.996353 
	C281.858521,78.093163 283.775513,70.332008 288.709717,66.308258 
	C289.726746,65.478897 290.953369,64.906593 292.459473,64.111557 
M301.024597,82.342659 
	C302.996765,79.200325 302.603973,76.366249 299.022888,75.168831 
	C297.626801,74.702019 295.023804,75.727982 293.996155,76.942085 
	C293.166077,77.922791 293.287750,81.306534 294.017120,81.696159 
	C295.858307,82.679688 298.280457,82.575684 301.024597,82.342659 
z"/>
<path fill="#494949" opacity="1.000000" stroke="none" 
	d="
M300.747192,82.625061 
	C298.280457,82.575684 295.858307,82.679688 294.017120,81.696159 
	C293.287750,81.306534 293.166077,77.922791 293.996155,76.942085 
	C295.023804,75.727982 297.626801,74.702019 299.022888,75.168831 
	C302.603973,76.366249 302.996765,79.200325 300.747192,82.625061 
z"/>
</svg>